<?xml version="1.0" encoding="UTF-8"?>
<svg id="logo" xmlns="http://www.w3.org/2000/svg" viewBox="0 0 128 128">
  <defs>
    <style>
      .cls-1 {
        fill: #2c2a29;
      }

      .cls-2 {
        fill: #ff4d00;
      }
    </style>
  </defs>
  <g id="logo-word">
    <path class="cls-1" d="M30.54,64c0-34.57,7.36-44.85,31.8-44.85,12.5,0,18.33,2.78,25.13,12.5l-3.47,2.08c-5.83-8.05-11.39-10.69-21.66-10.69-20.97,0-27.63,9.72-27.63,40.96s6.53,40.96,27.08,40.96c10.42,0,16.11-2.78,22.22-10.83l3.47,2.08c-6.94,9.72-13.05,12.64-25.69,12.64-24.02,0-31.24-10.27-31.24-44.85Z"/>
    <path id="dot-com" class="cls-2" d="M70.84,63.83c0-12.63,3.66-15.95,16.62-15.95s16.62,3.32,16.62,15.95-3.66,16.29-16.62,16.29-16.62-3.66-16.62-16.29Z"/>
  </g>
</svg>