<?xml version="1.0" encoding="UTF-8"?>
<svg id="logo" xmlns="http://www.w3.org/2000/svg" xmlns:xlink="http://www.w3.org/1999/xlink" viewBox="0 0 425 425">
  <defs>
    <style>
      .cls-1 {
        fill: #2c2a29;
      }

      .cls-2 {
        fill: #ff4d00;
      }
    </style>
    <symbol id="logo-word" viewBox="0 0 359.99 59.2">
      <g id="outlines">
        <path class="cls-1" d="M44.36,25.64c0-9.96,2.12-12.92,9.16-12.92,3.6,0,5.28.8,7.24,3.6l-1,.6c-1.68-2.32-3.28-3.08-6.24-3.08-6.04,0-7.96,2.8-7.96,11.8s1.88,11.8,7.8,11.8c3,0,4.64-.8,6.4-3.12l1,.6c-2,2.8-3.76,3.64-7.4,3.64-6.92,0-9-2.96-9-12.92Z"/>
        <path class="cls-1" d="M68.44,25.64c0-10,1.96-12.92,8.2-12.92s8.2,2.92,8.2,12.92-1.96,12.92-8.2,12.92-8.2-2.92-8.2-12.92ZM83.64,25.64c0-9-1.72-11.8-7-11.8s-7,2.8-7,11.8,1.72,11.8,7,11.8,7-2.8,7-11.8Z"/>
        <path class="cls-1" d="M92.24,25.68c0-10.04,1.96-12.96,8.2-12.96,3.48,0,6.08,1.04,7.04,4.4V6.01h1.2v31.99h-1.2v-2.64c-1.08,2.48-3.68,3.2-7.04,3.2-6.24,0-8.2-2.88-8.2-12.88ZM107.48,33.56v-12.56c0-5.44-3.12-7.16-7.04-7.16-5.28,0-7,2.84-7,11.84s1.72,11.76,7,11.76c3.36,0,7.04-.72,7.04-3.88Z"/>
        <path class="cls-1" d="M131.43,34.36l.96.68c-2.08,2.68-3.88,3.52-7.68,3.52-6.76,0-8.84-3.12-8.84-12.92s2.08-12.92,8.84-12.92,8.68,3.04,8.68,12.6h-16.32c0,9.2,1.8,12.12,7.64,12.12,3.24,0,4.8-.68,6.72-3.08ZM117.08,24.2h15.08c0-7.88-1.76-10.36-7.44-10.36s-7.48,2.48-7.64,10.36Z"/>
        <path class="cls-1" d="M140.96,35l.92-.76c1.28,2.36,2.84,3.2,5.76,3.2,6.16,0,8.32-1.4,8.32-5.96,0-3.72-1.8-5.24-7.08-5.88-6.16-.76-7.68-3.04-7.68-6.16,0-5.24,1.92-6.72,8.44-6.72,3.64,0,5.28.68,6.96,2.96l-.88.8c-1.32-1.92-2.96-2.64-6.08-2.64-5.4,0-7.24,1.32-7.24,5.6,0,2.44,1.44,4.32,6.4,4.96,6.44.84,8.36,2.6,8.36,7.08,0,5.52-2.2,7.08-9.52,7.08-3.48,0-5.04-.8-6.68-3.56Z"/>
        <path class="cls-1" d="M168.84,30.2v-15.68h-4.96v-1.08h4.96v-7.44h1.2v7.44h8.32v1.08h-8.32v15.68c0,4.92,1.24,7.24,5.2,7.24,2.76,0,4.16-.56,4.88-2.24l1.16.4c-1,2.28-2.44,2.96-6.04,2.96-4.96,0-6.4-2.44-6.4-8.36Z"/>
        <path class="cls-1" d="M189.2,38V6.01h1.2v10.68c.72-3.04,3.24-3.96,6.64-3.96,6,0,7.88,2.76,7.88,11.96v13.32h-1.2v-13.32c0-8.16-1.64-10.84-6.68-10.84s-6.64,1.48-6.64,7.24v16.92h-1.2Z"/>
        <path class="cls-1" d="M222.27,36.88h7v1.12h-15.2v-1.12h7V14.4h-5.04v-1.12h6.24v23.6Z"/>
        <path class="cls-1" d="M236.95,38V13.28h1.2v3.16c1.48-2.68,3.16-3.72,7.6-3.72,5.32,0,7,2.12,7,8.8v16.48h-1.2v-16.48c0-5.84-1.36-7.68-5.8-7.68-5.6,0-7.6,1.32-7.6,7.24v16.92h-1.2Z"/>
        <path class="cls-1" d="M263.11,44.04l.88-.76c1.12,1.04,2.4,1.44,4.56,1.44,5.08,0,6.76-1.96,6.76-8.04v-5.08c-.96,3.36-3.56,4.4-7.04,4.4-6.24,0-8.2-2.92-8.2-12.8,0-8.12,1.92-10.48,8.2-10.48,3.36,0,5.96.72,7.04,3.2v-2.64h1.2v23.04c0,7.36-1.84,9.52-7.96,9.52-2.68,0-3.96-.4-5.44-1.8ZM275.31,27.72v-10c0-3.16-3.68-3.88-7.04-3.88-5.24,0-7,2.24-7,9.36,0,8.84,1.72,11.68,7,11.68,3.92,0,7.04-1.72,7.04-7.16Z"/>
        <path class="cls-1" d="M284.95,35l.92-.76c1.28,2.36,2.84,3.2,5.76,3.2,6.16,0,8.32-1.4,8.32-5.96,0-3.72-1.8-5.24-7.08-5.88-6.16-.76-7.68-3.04-7.68-6.16,0-5.24,1.92-6.72,8.44-6.72,3.64,0,5.28.68,6.96,2.96l-.88.8c-1.32-1.92-2.96-2.64-6.08-2.64-5.4,0-7.24,1.32-7.24,5.6,0,2.44,1.44,4.32,6.4,4.96,6.44.84,8.36,2.6,8.36,7.08,0,5.52-2.2,7.08-9.52,7.08-3.48,0-5.04-.8-6.68-3.56Z"/>
        <path id="dot-com" class="cls-2" d="M309.63,35.58c0-3.04.88-3.84,4-3.84s4,.8,4,3.84-.88,3.92-4,3.92-4-.88-4-3.92Z"/>
        <path id="i-dot" class="cls-1" d="M219.03,5.93c0-1.32.44-1.72,1.8-1.72s1.8.4,1.8,1.72-.44,1.72-1.8,1.72-1.8-.4-1.8-1.72Z"/>
      </g>
    </symbol>
  </defs>
  <use width="359.99" height="59.2" transform="translate(32.5 187.44)" xlink:href="#logo-word"/>
</svg>