<?xml version="1.0" encoding="UTF-8"?>
<svg id="favicon" xmlns="http://www.w3.org/2000/svg" viewBox="0 0 512 512">
  <defs>
    <style>
      .cls-1 {
        fill: #fff;
      }

      .cls-2 {
        fill: #ff4d00;
      }
    </style>
  </defs>
  <rect y="0" width="512" height="512" rx="104" ry="104"/>
  <path class="cls-1" d="M122.16,256c0-138.28,29.44-179.4,127.2-179.4,50,0,73.32,11.12,100.52,50l-13.88,8.32c-23.32-32.2-45.56-42.76-86.64-42.76-83.88,0-110.52,38.88-110.52,163.84s26.12,163.84,108.32,163.84c41.68,0,64.44-11.12,88.88-43.32l13.88,8.32c-27.76,38.88-52.2,50.56-102.76,50.56-96.08,0-124.96-41.08-124.96-179.4h-.04Z"/>
  <path id="dot-com" class="cls-2" d="M283.36,255.32c0-50.52,14.64-63.8,66.48-63.8s66.48,13.28,66.48,63.8-14.64,65.16-66.48,65.16-66.48-14.64-66.48-65.16Z"/>
</svg>